<svg width="184" height="30" viewBox="0 0 184 30" fill="none" xmlns="http://www.w3.org/2000/svg">
<path d="M30.9001 1.6875C30.9001 2.61948 30.1445 3.375 29.2126 3.375H5.9834C5.53895 3.375 5.15007 3.54167 4.81673 3.875C4.51118 4.18055 4.3584 4.55555 4.3584 5V25C4.3584 25.4444 4.51118 25.8333 4.81673 26.1667C5.15007 26.4722 5.53895 26.625 5.9834 26.625H29.2126C30.1445 26.625 30.9001 27.3805 30.9001 28.3125C30.9001 29.2445 30.1445 30 29.2126 30H5.9834C4.59451 30 3.41395 29.5139 2.44173 28.5417C1.46951 27.5694 0.983398 26.3889 0.983398 25V5C0.983398 3.61111 1.46951 2.43055 2.44173 1.45833C3.41395 0.486111 4.59451 0 5.9834 0H29.2126C30.1445 0 30.9001 0.755519 30.9001 1.6875Z" fill="white"/>
<path d="M21.5755 20.5139C22.5075 20.5139 23.2612 21.2694 23.2612 22.2014C23.2612 23.1334 22.5057 23.8889 21.5737 23.8889H9.05981C8.12783 23.8889 7.37231 23.1334 7.37231 22.2014C7.37231 21.2694 8.12286 20.5139 9.05484 20.5139C11.9821 20.5139 18.0371 20.5139 21.5755 20.5139Z" fill="white"/>
<path d="M47.2488 21.2094C48.0696 21.2094 48.7522 20.9805 49.2965 20.5226C49.8494 20.056 50.1475 19.4642 50.1907 18.747H51.2016C51.167 19.7579 50.7696 20.583 50.0093 21.2224C49.249 21.8531 48.3331 22.1685 47.2618 22.1685C45.9398 22.1685 44.8512 21.7451 43.9958 20.8984C43.1405 20.0517 42.7128 18.9242 42.7128 17.5158C42.7128 16.047 43.1448 14.8634 44.0088 13.9648C44.8814 13.0576 45.9701 12.604 47.2747 12.604C48.3374 12.604 49.223 12.8762 49.9315 13.4205C50.64 13.9648 51.0288 14.6862 51.0979 15.5848H50.1389C50.0525 15.0146 49.7544 14.5394 49.2446 14.1592C48.7435 13.779 48.0826 13.589 47.2618 13.589C46.3114 13.589 45.4949 13.9432 44.8123 14.6517C44.1298 15.3602 43.7885 16.2803 43.7885 17.4122C43.7885 18.5613 44.1168 19.4814 44.7734 20.1726C45.4301 20.8638 46.2552 21.2094 47.2488 21.2094ZM65.1823 22.1814C63.8518 22.1814 62.7458 21.7278 61.8646 20.8206C60.9833 19.9134 60.5426 18.7643 60.5426 17.3733C60.5426 16.0082 60.9876 14.8763 61.8775 13.9778C62.7674 13.0706 63.869 12.617 65.1823 12.617C66.4956 12.617 67.5972 13.0706 68.4871 13.9778C69.377 14.8763 69.822 16.0082 69.822 17.3733C69.822 18.7643 69.3814 19.9134 68.5001 20.8206C67.6274 21.7278 66.5215 22.1814 65.1823 22.1814ZM67.7095 14.6776C67.0356 13.9518 66.1932 13.589 65.1823 13.589C64.1714 13.589 63.329 13.9518 62.6551 14.6776C61.9812 15.3947 61.6442 16.2933 61.6442 17.3733C61.6442 18.4792 61.9812 19.395 62.6551 20.1208C63.329 20.8466 64.1758 21.2094 65.1953 21.2094C66.1975 21.2094 67.0356 20.8466 67.7095 20.1208C68.3834 19.395 68.7204 18.4835 68.7204 17.3862C68.7204 16.3062 68.3834 15.4034 67.7095 14.6776ZM83.9002 18.9803H83.5114L80.5047 14.6387V22H79.429V12.7984H80.5177L83.7058 17.5029L86.9588 12.7984H87.9826V22H86.894V14.6387L83.9002 18.9803ZM103.686 22H97.8411V12.7984H103.66V13.7574H98.9297V16.6994H103.44V17.6195H98.9297V21.041H103.686V22ZM118.698 22L116.728 18.6822C116.659 18.6909 116.56 18.6952 116.43 18.6952H114.305V22H113.203V12.7984H116.611C117.164 12.7984 117.674 12.9021 118.141 13.1094C118.616 13.3082 119.013 13.6408 119.333 14.1074C119.661 14.5739 119.825 15.1355 119.825 15.7922C119.825 16.371 119.648 16.911 119.294 17.4122C118.94 17.9133 118.434 18.2762 117.778 18.5008L119.903 22H118.698ZM114.305 13.7574V17.7491H116.287C117.074 17.7491 117.674 17.5634 118.089 17.1918C118.512 16.8117 118.724 16.3451 118.724 15.7922C118.724 15.1182 118.517 14.6128 118.102 14.2758C117.687 13.9302 117.125 13.7574 116.417 13.7574H114.305ZM133.398 21.2094C134.219 21.2094 134.902 20.9805 135.446 20.5226C135.999 20.056 136.297 19.4642 136.34 18.747H137.351C137.317 19.7579 136.919 20.583 136.159 21.2224C135.399 21.8531 134.483 22.1685 133.411 22.1685C132.09 22.1685 131.001 21.7451 130.146 20.8984C129.29 20.0517 128.862 18.9242 128.862 17.5158C128.862 16.047 129.294 14.8634 130.158 13.9648C131.031 13.0576 132.12 12.604 133.424 12.604C134.487 12.604 135.373 12.8762 136.081 13.4205C136.79 13.9648 137.178 14.6862 137.248 15.5848H136.289C136.202 15.0146 135.904 14.5394 135.394 14.1592C134.893 13.779 134.232 13.589 133.411 13.589C132.461 13.589 131.645 13.9432 130.962 14.6517C130.279 15.3602 129.938 16.2803 129.938 17.4122C129.938 18.5613 130.266 19.4814 130.923 20.1726C131.58 20.8638 132.405 21.2094 133.398 21.2094ZM152.796 22H146.952V12.7984H152.771V13.7574H148.04V16.6994H152.55V17.6195H148.04V21.041H152.796V22Z" fill="white"/>
</svg>
